# xmcd CD database file
#
# Track frame offsets:
#	150
#	25512
#	40652
#
# Disc length: 879 seconds
#
# Revision: 1
# Processed by: cddbd v1.5.2PL0 Copyright (c) Steve Scherf et al.
# Submitted via: CDex 1.51
#
DISCID=14036d03
DTITLE=上木彩矢 - Summer Memories
DYEAR=2008
DGENRE=JPop
TTITLE0=Summer Memories
TTITLE1=I'm your side
TTITLE2=Summer Memories -Instrumental-
EXTD=YEAR: 2008
EXTT0=
EXTT1=
EXTT2=
PLAYORDER=
